<?xml version="1.0" encoding="UTF-8" standalone="no"?>
<svg
   xmlns:dc="http://purl.org/dc/elements/1.1/"
   xmlns:cc="http://creativecommons.org/ns#"
   xmlns:rdf="http://www.w3.org/1999/02/22-rdf-syntax-ns#"
   xmlns:svg="http://www.w3.org/2000/svg"
   xmlns="http://www.w3.org/2000/svg"
   xmlns:sodipodi="http://sodipodi.sourceforge.net/DTD/sodipodi-0.dtd"
   xmlns:inkscape="http://www.inkscape.org/namespaces/inkscape"
   aria-hidden="true"
   focusable="false"
   role="img"
   viewBox="0 0 448 512"
   version="1.1"
   id="svg855"
   sodipodi:docname="cards-regular.svg"
   inkscape:version="1.0.1 (3bc2e813f5, 2020-09-07)">
  <metadata
     id="metadata861">
    <rdf:RDF>
      <cc:Work
         rdf:about="">
        <dc:format>image/svg+xml</dc:format>
        <dc:type
           rdf:resource="http://purl.org/dc/dcmitype/StillImage" />
        <dc:title></dc:title>
      </cc:Work>
    </rdf:RDF>
  </metadata>
  <defs
     id="defs859" />
  <sodipodi:namedview
     pagecolor="#ffffff"
     bordercolor="#666666"
     borderopacity="1"
     objecttolerance="10"
     gridtolerance="10"
     guidetolerance="10"
     inkscape:pageopacity="0"
     inkscape:pageshadow="2"
     inkscape:window-width="3840"
     inkscape:window-height="2066"
     id="namedview857"
     showgrid="false"
     inkscape:zoom="0.22669244"
     inkscape:cx="-687.45992"
     inkscape:cy="-1027.6314"
     inkscape:window-x="-11"
     inkscape:window-y="-11"
     inkscape:window-maximized="1"
     inkscape:current-layer="svg855" />
  <path
     fill="currentColor"
     d="M 14.059,65.941 65.941,14.059 C 74.94269,5.0572386 87.15163,6.6567641e-5 99.882,0 H 272 c 26.51,0 48,21.49 48,48 v 18 h 20 c 26.51,0 48,21.49 48,48 v 320 c 0,26.51 -21.49,48 -48,48 H 116 C 89.49,482 68,460.51 68,434 V 416 H 48 C 21.49,416 0,394.51 0,368 V 99.882 C 7e-5,87.151634 5.05724,74.942695 14.059,65.941 Z M 122,434 h 212 c 3.31371,0 6,-2.68629 6,-6 V 120 c 0,-3.31371 -2.68629,-6 -6,-6 h -14 v 254 c 0,26.51 -21.49,48 -48,48 H 116 v 12 c 0,3.31371 2.68629,6 6,6 z M 48,160 v 202 c 0,3.31371 2.68629,6 6,6 h 212 c 3.31371,0 6,-2.68629 6,-6 V 54 c 0,-3.313708 -2.68629,-6 -6,-6 h -106 -48 -9.632 c -1.591,0 -3.117,0.632 -4.243,1.757 L 49.757,98.125 c -1.12517,1.125365 -1.75719,2.65163 -1.757,4.243 z"
     id="path853"
     sodipodi:nodetypes="cccsscsssssscssccssssscsscsscssssssccscccc" />
</svg>
