<svg xmlns="http://www.w3.org/2000/svg" aria-hidden="true" viewBox="0 0 448 512"><path fill="currentColor" d="m14.059 65.941 51.882-51.882A48 48 0 0 1 99.882 0H272c26.51 0 48 21.49 48 48v18h20c26.51 0 48 21.49 48 48v320c0 26.51-21.49 48-48 48H116c-26.51 0-48-21.49-48-48v-18H48c-26.51 0-48-21.49-48-48V99.882a48 48 0 0 1 14.059-33.941ZM122 434h212a6 6 0 0 0 6-6V120a6 6 0 0 0-6-6h-14v254c0 26.51-21.49 48-48 48H116v12a6 6 0 0 0 6 6zM48 160v202a6 6 0 0 0 6 6h212a6 6 0 0 0 6-6V54a6 6 0 0 0-6-6H102.368a6.003 6.003 0 0 0-4.243 1.757L49.757 98.125A6 6 0 0 0 48 102.368z"/></svg>