<svg xmlns="http://www.w3.org/2000/svg" viewBox="0 0 448 512"><path style="fill:#000;fill-opacity:1;stroke-width:.990416" d="M409.806 43.404a47.305 47.305 0 0 1 6.169 23.412v265.536a47.54 47.54 0 0 1-13.924 33.616l-83.079 83.079a47.54 47.54 0 0 1-33.616 13.924H55.463c-11.141 0-21.38-3.843-29.484-10.262 8.169 14.402 23.629 24.128 41.37 24.128H297.24a47.54 47.54 0 0 0 33.616-13.924l83.079-83.08a47.54 47.54 0 0 0 13.924-33.615V80.682c0-15.114-7.06-28.57-18.054-37.278z"/><path fill="currentColor" d="M408.052 324.43V58.892c0-26.256-21.285-47.54-47.54-47.54H47.54C21.284 11.353 0 32.637 0 58.893v348.614c0 26.256 21.284 47.54 47.54 47.54h229.893a47.54 47.54 0 0 0 33.616-13.924l83.078-83.078a47.54 47.54 0 0 0 13.925-33.616z" style="stroke-width:.990416"/><path style="fill:#000;fill-opacity:1;stroke-width:.990416" d="M429.614 65.193a47.305 47.305 0 0 1 6.17 23.412v265.536a47.54 47.54 0 0 1-13.925 33.616l-83.079 83.08a47.54 47.54 0 0 1-33.616 13.923H75.272c-11.142 0-21.38-3.843-29.485-10.262 8.17 14.402 23.629 24.128 41.37 24.128h229.892a47.54 47.54 0 0 0 33.616-13.924l83.08-83.079a47.54 47.54 0 0 0 13.923-33.616V102.47c0-15.114-7.06-28.57-18.054-37.278z"/></svg>