<?xml version="1.0" encoding="UTF-8" standalone="no"?>
<svg
   xmlns:dc="http://purl.org/dc/elements/1.1/"
   xmlns:cc="http://creativecommons.org/ns#"
   xmlns:rdf="http://www.w3.org/1999/02/22-rdf-syntax-ns#"
   xmlns:svg="http://www.w3.org/2000/svg"
   xmlns="http://www.w3.org/2000/svg"
   xmlns:sodipodi="http://sodipodi.sourceforge.net/DTD/sodipodi-0.dtd"
   xmlns:inkscape="http://www.inkscape.org/namespaces/inkscape"
   aria-hidden="true"
   focusable="false"
   role="img"
   viewBox="0 0 576 512"
   version="1.1"
   id="svg931"
   sodipodi:docname="dm-screen-regular.svg"
   inkscape:version="1.0.1 (3bc2e813f5, 2020-09-07)">
  <metadata
     id="metadata937">
    <rdf:RDF>
      <cc:Work
         rdf:about="">
        <dc:format>image/svg+xml</dc:format>
        <dc:type
           rdf:resource="http://purl.org/dc/dcmitype/StillImage" />
        <dc:title></dc:title>
      </cc:Work>
    </rdf:RDF>
  </metadata>
  <defs
     id="defs935" />
  <sodipodi:namedview
     pagecolor="#ffffff"
     bordercolor="#666666"
     borderopacity="1"
     objecttolerance="10"
     gridtolerance="10"
     guidetolerance="10"
     inkscape:pageopacity="0"
     inkscape:pageshadow="2"
     inkscape:window-width="3840"
     inkscape:window-height="2066"
     id="namedview933"
     showgrid="false"
     inkscape:zoom="1.8782524"
     inkscape:cx="300.96078"
     inkscape:cy="286.48767"
     inkscape:window-x="-11"
     inkscape:window-y="-11"
     inkscape:window-maximized="1"
     inkscape:current-layer="svg931" />
  <path
     fill="currentColor"
     d="m 560.02,32 c -1.96,0 -3.98,0.37 -5.96,1.16 L 404.01,96 H 404 171.975 C 165.44741,93.83028 40.453485,31.590897 20.12,31.95 -0.21348465,32.309103 0.00290977,48.574909 0,61.66 V 407.98 C 0,417.17 7.53,424 14.74,423.42 22.822713,428.07859 172,480 172,480 l 232.025,-3.215 C 417.01493,481.11981 555.88,424.05 555.88,424.05 568.03114,419.19287 575.99986,407.42594 576,394.34 V 48.02 C 576,38.83 568.47,32 560.02,32 Z M 204,149.61 H 372 V 435.58 H 204 Z M 48,382.92 V 93.95 l 108,54.59 v 286.2 l -0.64,-7.29 z m 480,0 -108,44.53 V 141.26 l 0.64,-0.24 L 528,93.95 Z"
     id="path929"
     sodipodi:nodetypes="scccczcscccccssccccccccccccccccc" />
</svg>
