<svg xmlns="http://www.w3.org/2000/svg" aria-hidden="true" viewBox="0 0 576 512"><path fill="currentColor" d="M560.02 32c-1.96 0-3.98.37-5.96 1.16L404.01 96H171.975C165.447 93.83 40.453 31.59 20.12 31.95-.213 32.31.003 48.575 0 61.66v346.32c0 9.19 7.53 16.02 14.74 15.44C22.823 428.079 172 480 172 480l232.025-3.215c12.99 4.335 151.855-52.735 151.855-52.735A31.996 31.996 0 0 0 576 394.34V48.02c0-9.19-7.53-16.02-15.98-16.02ZM204 149.61h168v285.97H204ZM48 382.92V93.95l108 54.59v286.2l-.64-7.29zm480 0-108 44.53V141.26l.64-.24L528 93.95Z"/></svg>