<?xml version="1.0" encoding="utf-8"?>
<svg viewBox="380.16 45.164 40.453 42.383" width="40.453" height="42.383" xmlns="http://www.w3.org/2000/svg">
  <path style="fill: rgb(175, 213, 170); stroke: rgb(0, 0, 0);" d="M 389.337 79.918 L 411.435 79.868 L 420.06 74.116 L 420.613 45.164 L 411.483 51.268 L 388.735 50.915 L 380.16 45.569 L 380.812 73.16 L 389.337 79.918 Z"/>
  <path d="M 401.361 56.14 C 403.548 56.14 405.154 56.647 406.181 57.66 C 407.208 58.68 407.721 59.983 407.721 61.57 C 407.721 62.69 407.478 63.74 406.991 64.72 C 406.504 65.7 405.781 66.497 404.821 67.11 C 403.861 67.73 402.708 68.04 401.361 68.04 C 400.581 68.04 399.928 67.937 399.401 67.73 C 399.368 67.503 399.351 67.327 399.351 67.2 C 399.351 66.973 399.378 66.767 399.431 66.58 C 399.898 66.693 400.391 66.75 400.911 66.75 C 403.544 66.75 404.861 65.293 404.861 62.38 C 404.861 60.813 404.478 59.587 403.711 58.7 C 402.951 57.813 401.758 57.37 400.131 57.37 C 399.718 57.37 399.241 57.427 398.701 57.54 L 398.701 71 C 398.701 71.807 398.784 72.42 398.951 72.84 C 399.124 73.26 399.381 73.55 399.721 73.71 C 400.068 73.863 400.558 73.96 401.191 74 C 401.284 74.26 401.331 74.66 401.331 75.2 C 400.478 75.147 399.304 75.12 397.811 75.12 C 395.998 75.12 394.728 75.147 394.001 75.2 C 394.001 74.66 394.048 74.26 394.141 74 C 394.888 73.96 395.394 73.777 395.661 73.45 C 395.934 73.123 396.071 72.493 396.071 71.56 L 396.071 59.75 C 396.071 58.817 395.934 58.187 395.661 57.86 C 395.394 57.533 394.888 57.35 394.141 57.31 C 394.048 57.05 394.001 56.65 394.001 56.11 C 394.968 56.163 396.238 56.19 397.811 56.19 L 401.361 56.14 Z" transform="matrix(1, 0, 0, 1, 0, 0)" style="white-space: pre;"/>
  <path style="fill: rgb(216, 216, 216); stroke: rgb(0, 0, 0);" d="M 411.733 50.649 L 410.984 80.083"/>
  <path style="fill: rgb(216, 216, 216); stroke: rgb(0, 0, 0);" d="M 389.175 51.377 L 389.76 79.395"/>
</svg>