<?xml version="1.0" encoding="utf-8"?>
<svg viewBox="380.16 45.164 40.453 42.383" width="40.453" height="42.383" xmlns="http://www.w3.org/2000/svg">
  <path style="fill: rgb(175, 213, 170); stroke: rgb(163, 196, 188); stroke-width: 2px;" d="M 390.016 86.209 L 410.727 86.161 L 418.81 80.772 L 419.328 53.638 L 410.771 59.358 L 389.454 59.028 L 381.417 54.018 L 382.028 79.875 L 390.016 86.209 Z"/>
  <path d="M 401.286 63.924 C 403.335 63.924 404.841 64.399 405.803 65.349 C 406.765 66.304 407.246 67.525 407.246 69.013 C 407.246 70.063 407.019 71.047 406.562 71.965 C 406.106 72.884 405.428 73.631 404.529 74.205 C 403.629 74.786 402.548 75.077 401.286 75.077 C 400.555 75.077 399.942 74.98 399.449 74.786 C 399.417 74.574 399.403 74.408 399.403 74.29 C 399.403 74.077 399.427 73.884 399.476 73.708 C 399.916 73.814 400.377 73.868 400.864 73.868 C 403.331 73.868 404.565 72.502 404.565 69.773 C 404.565 68.304 404.206 67.154 403.488 66.323 C 402.776 65.492 401.658 65.076 400.132 65.076 C 399.746 65.076 399.298 65.131 398.793 65.236 L 398.793 77.851 C 398.793 78.607 398.872 79.182 399.028 79.575 C 399.19 79.968 399.43 80.241 399.749 80.39 C 400.074 80.534 400.533 80.624 401.126 80.661 C 401.214 80.906 401.257 81.282 401.257 81.787 C 400.459 81.737 399.358 81.711 397.959 81.711 C 396.259 81.711 395.07 81.737 394.388 81.787 C 394.388 81.282 394.433 80.906 394.519 80.661 C 395.219 80.624 395.693 80.453 395.944 80.146 C 396.2 79.84 396.329 79.25 396.329 78.376 L 396.329 67.307 C 396.329 66.434 396.2 65.843 395.944 65.537 C 395.693 65.23 395.219 65.058 394.519 65.02 C 394.433 64.777 394.388 64.402 394.388 63.896 C 395.295 63.946 396.485 63.971 397.959 63.971 L 401.286 63.924 Z" style="fill: rgb(241, 247, 238); white-space: pre;"/>
  <path style="fill: rgb(216, 216, 216); stroke-width: 2px; stroke: rgb(163, 196, 188);" d="M 411.006 58.779 L 410.304 86.363"/>
  <path style="fill: rgb(216, 216, 216); stroke-width: 2px; stroke: rgb(163, 196, 188);" d="M 389.865 59.46 L 390.413 85.719"/>
  <rect x="428.01" y="52.527" width="34.839" height="34.839" style="fill: rgb(216, 216, 216);"/>
</svg>