<svg viewBox="380.16 45.164 40.453 42.383" width="40.453" height="42.383" xmlns="http://www.w3.org/2000/svg"><path style="fill:#afd5aa;stroke:#a3c4bc;stroke-width:2px" d="m390.016 86.209 20.711-.048 8.083-5.389.518-27.134-8.557 5.72-21.317-.33-8.037-5.01.611 25.857 7.988 6.334Z"/><path d="M401.286 63.924c2.049 0 3.555.475 4.517 1.425.962.955 1.443 2.176 1.443 3.664 0 1.05-.227 2.034-.684 2.952a5.552 5.552 0 0 1-2.033 2.24c-.9.581-1.981.872-3.243.872-.731 0-1.344-.097-1.837-.291a3.497 3.497 0 0 1-.046-.496c0-.213.024-.406.073-.582.44.106.901.16 1.388.16 2.467 0 3.701-1.366 3.701-4.095 0-1.469-.359-2.619-1.077-3.45-.712-.831-1.83-1.247-3.356-1.247-.386 0-.834.055-1.339.16v12.615c0 .756.079 1.331.235 1.724.162.393.402.666.721.815.325.144.784.234 1.377.271.088.245.131.621.131 1.126a55.785 55.785 0 0 0-3.298-.076c-1.7 0-2.889.026-3.571.076 0-.505.045-.881.131-1.126.7-.037 1.174-.208 1.425-.515.256-.306.385-.896.385-1.77V67.307c0-.873-.129-1.464-.385-1.77-.251-.307-.725-.479-1.425-.517-.086-.243-.131-.618-.131-1.124.907.05 2.097.075 3.571.075l3.327-.047Z" style="fill:#f1f7ee;white-space:pre"/><path style="fill:#d8d8d8;stroke-width:2px;stroke:#a3c4bc" d="m411.006 58.779-.702 27.584M389.865 59.46l.548 26.259"/><path style="fill:#d8d8d8" d="M428.01 52.527h34.839v34.839H428.01z"/></svg>